<?xml version='1.0' encoding='UTF-8'?>
<svg width="106mm" height="106mm" version="1.1" viewBox="0 0 106 106" xmlns="http://www.w3.org/2000/svg"><path d="M8,8H10V10H8zM10,8H12V10H10zM12,8H14V10H12zM14,8H16V10H14zM16,8H18V10H16zM18,8H20V10H18zM20,8H22V10H20zM24,8H26V10H24zM26,8H28V10H26zM28,8H30V10H28zM30,8H32V10H30zM32,8H34V10H32zM38,8H40V10H38zM40,8H42V10H40zM44,8H46V10H44zM46,8H48V10H46zM52,8H54V10H52zM54,8H56V10H54zM58,8H60V10H58zM60,8H62V10H60zM62,8H64V10H62zM64,8H66V10H64zM66,8H68V10H66zM68,8H70V10H68zM70,8H72V10H70zM72,8H74V10H72zM74,8H76V10H74zM80,8H82V10H80zM84,8H86V10H84zM86,8H88V10H86zM88,8H90V10H88zM90,8H92V10H90zM92,8H94V10H92zM94,8H96V10H94zM96,8H98V10H96zM8,10H10V12H8zM20,10H22V12H20zM24,10H26V12H24zM28,10H30V12H28zM30,10H32V12H30zM32,10H34V12H32zM36,10H38V12H36zM42,10H44V12H42zM46,10H48V12H46zM52,10H54V12H52zM64,10H66V12H64zM78,10H80V12H78zM84,10H86V12H84zM96,10H98V12H96zM8,12H10V14H8zM12,12H14V14H12zM14,12H16V14H14zM16,12H18V14H16zM20,12H22V14H20zM24,12H26V14H24zM26,12H28V14H26zM28,12H30V14H28zM40,12H42V14H40zM44,12H46V14H44zM48,12H50V14H48zM52,12H54V14H52zM58,12H60V14H58zM62,12H64V14H62zM64,12H66V14H64zM68,12H70V14H68zM70,12H72V14H70zM72,12H74V14H72zM74,12H76V14H74zM78,12H80V14H78zM84,12H86V14H84zM88,12H90V14H88zM90,12H92V14H90zM92,12H94V14H92zM96,12H98V14H96zM8,14H10V16H8zM12,14H14V16H12zM14,14H16V16H14zM16,14H18V16H16zM20,14H22V16H20zM26,14H28V16H26zM28,14H30V16H28zM30,14H32V16H30zM32,14H34V16H32zM34,14H36V16H34zM46,14H48V16H46zM52,14H54V16H52zM54,14H56V16H54zM58,14H60V16H58zM60,14H62V16H60zM62,14H64V16H62zM64,14H66V16H64zM66,14H68V16H66zM68,14H70V16H68zM70,14H72V16H70zM78,14H80V16H78zM80,14H82V16H80zM84,14H86V16H84zM88,14H90V16H88zM90,14H92V16H90zM92,14H94V16H92zM96,14H98V16H96zM8,16H10V18H8zM12,16H14V18H12zM14,16H16V18H14zM16,16H18V18H16zM20,16H22V18H20zM26,16H28V18H26zM36,16H38V18H36zM38,16H40V18H38zM42,16H44V18H42zM48,16H50V18H48zM50,16H52V18H50zM52,16H54V18H52zM54,16H56V18H54zM56,16H58V18H56zM58,16H60V18H58zM60,16H62V18H60zM64,16H66V18H64zM66,16H68V18H66zM68,16H70V18H68zM76,16H78V18H76zM78,16H80V18H78zM80,16H82V18H80zM84,16H86V18H84zM88,16H90V18H88zM90,16H92V18H90zM92,16H94V18H92zM96,16H98V18H96zM8,18H10V20H8zM20,18H22V20H20zM24,18H26V20H24zM28,18H30V20H28zM32,18H34V20H32zM38,18H40V20H38zM40,18H42V20H40zM42,18H44V20H42zM44,18H46V20H44zM46,18H48V20H46zM48,18H50V20H48zM56,18H58V20H56zM58,18H60V20H58zM62,18H64V20H62zM64,18H66V20H64zM70,18H72V20H70zM72,18H74V20H72zM84,18H86V20H84zM96,18H98V20H96zM8,20H10V22H8zM10,20H12V22H10zM12,20H14V22H12zM14,20H16V22H14zM16,20H18V22H16zM18,20H20V22H18zM20,20H22V22H20zM24,20H26V22H24zM28,20H30V22H28zM32,20H34V22H32zM36,20H38V22H36zM40,20H42V22H40zM44,20H46V22H44zM48,20H50V22H48zM52,20H54V22H52zM56,20H58V22H56zM60,20H62V22H60zM64,20H66V22H64zM68,20H70V22H68zM72,20H74V22H72zM76,20H78V22H76zM80,20H82V22H80zM84,20H86V22H84zM86,20H88V22H86zM88,20H90V22H88zM90,20H92V22H90zM92,20H94V22H92zM94,20H96V22H94zM96,20H98V22H96zM24,22H26V24H24zM32,22H34V24H32zM34,22H36V24H34zM40,22H42V24H40zM42,22H44V24H42zM44,22H46V24H44zM48,22H50V24H48zM56,22H58V24H56zM60,22H62V24H60zM64,22H66V24H64zM66,22H68V24H66zM70,22H72V24H70zM72,22H74V24H72zM76,22H78V24H76zM80,22H82V24H80zM12,24H14V26H12zM14,24H16V26H14zM16,24H18V26H16zM20,24H22V26H20zM24,24H26V26H24zM26,24H28V26H26zM28,24H30V26H28zM30,24H32V26H30zM34,24H36V26H34zM42,24H44V26H42zM44,24H46V26H44zM48,24H50V26H48zM50,24H52V26H50zM52,24H54V26H52zM54,24H56V26H54zM56,24H58V26H56zM62,24H64V26H62zM66,24H68V26H66zM68,24H70V26H68zM70,24H72V26H70zM76,24H78V26H76zM82,24H84V26H82zM84,24H86V26H84zM86,24H88V26H86zM92,24H94V26H92zM94,24H96V26H94zM96,24H98V26H96zM14,26H16V28H14zM18,26H20V28H18zM30,26H32V28H30zM32,26H34V28H32zM34,26H36V28H34zM40,26H42V28H40zM46,26H48V28H46zM50,26H52V28H50zM56,26H58V28H56zM58,26H60V28H58zM60,26H62V28H60zM62,26H64V28H62zM64,26H66V28H64zM66,26H68V28H66zM68,26H70V28H68zM70,26H72V28H70zM74,26H76V28H74zM78,26H80V28H78zM80,26H82V28H80zM88,26H90V28H88zM90,26H92V28H90zM94,26H96V28H94zM96,26H98V28H96zM10,28H12V30H10zM12,28H14V30H12zM18,28H20V30H18zM20,28H22V30H20zM24,28H26V30H24zM26,28H28V30H26zM34,28H36V30H34zM36,28H38V30H36zM38,28H40V30H38zM50,28H52V30H50zM52,28H54V30H52zM60,28H62V30H60zM70,28H72V30H70zM74,28H76V30H74zM76,28H78V30H76zM78,28H80V30H78zM80,28H82V30H80zM84,28H86V30H84zM86,28H88V30H86zM94,28H96V30H94zM8,30H10V32H8zM12,30H14V32H12zM14,30H16V32H14zM26,30H28V32H26zM28,30H30V32H28zM32,30H34V32H32zM34,30H36V32H34zM40,30H42V32H40zM42,30H44V32H42zM44,30H46V32H44zM46,30H48V32H46zM48,30H50V32H48zM52,30H54V32H52zM64,30H66V32H64zM68,30H70V32H68zM72,30H74V32H72zM80,30H82V32H80zM86,30H88V32H86zM88,30H90V32H88zM90,30H92V32H90zM92,30H94V32H92zM8,32H10V34H8zM12,32H14V34H12zM16,32H18V34H16zM20,32H22V34H20zM24,32H26V34H24zM26,32H28V34H26zM28,32H30V34H28zM32,32H34V34H32zM34,32H36V34H34zM44,32H46V34H44zM46,32H48V34H46zM48,32H50V34H48zM60,32H62V34H60zM64,32H66V34H64zM66,32H68V34H66zM70,32H72V34H70zM94,32H96V34H94zM12,34H14V36H12zM14,34H16V36H14zM22,34H24V36H22zM24,34H26V36H24zM32,34H34V36H32zM38,34H40V36H38zM42,34H44V36H42zM44,34H46V36H44zM56,34H58V36H56zM62,34H64V36H62zM64,34H66V36H64zM66,34H68V36H66zM68,34H70V36H68zM70,34H72V36H70zM72,34H74V36H72zM80,34H82V36H80zM82,34H84V36H82zM86,34H88V36H86zM88,34H90V36H88zM96,34H98V36H96zM10,36H12V38H10zM12,36H14V38H12zM14,36H16V38H14zM16,36H18V38H16zM18,36H20V38H18zM20,36H22V38H20zM26,36H28V38H26zM28,36H30V38H28zM32,36H34V38H32zM38,36H40V38H38zM44,36H46V38H44zM46,36H48V38H46zM48,36H50V38H48zM50,36H52V38H50zM60,36H62V38H60zM62,36H64V38H62zM64,36H66V38H64zM70,36H72V38H70zM72,36H74V38H72zM76,36H78V38H76zM82,36H84V38H82zM84,36H86V38H84zM92,36H94V38H92zM94,36H96V38H94zM8,38H10V40H8zM14,38H16V40H14zM16,38H18V40H16zM18,38H20V40H18zM26,38H28V40H26zM32,38H34V40H32zM34,38H36V40H34zM36,38H38V40H36zM54,38H56V40H54zM60,38H62V40H60zM68,38H70V40H68zM72,38H74V40H72zM76,38H78V40H76zM80,38H82V40H80zM82,38H84V40H82zM86,38H88V40H86zM88,38H90V40H88zM90,38H92V40H90zM92,38H94V40H92zM96,38H98V40H96zM8,40H10V42H8zM10,40H12V42H10zM14,40H16V42H14zM16,40H18V42H16zM20,40H22V42H20zM24,40H26V42H24zM26,40H28V42H26zM34,40H36V42H34zM36,40H38V42H36zM38,40H40V42H38zM40,40H42V42H40zM42,40H44V42H42zM48,40H50V42H48zM52,40H54V42H52zM54,40H56V42H54zM62,40H64V42H62zM68,40H70V42H68zM70,40H72V42H70zM74,40H76V42H74zM76,40H78V42H76zM82,40H84V42H82zM90,40H92V42H90zM94,40H96V42H94zM96,40H98V42H96zM10,42H12V44H10zM12,42H14V44H12zM16,42H18V44H16zM24,42H26V44H24zM26,42H28V44H26zM28,42H30V44H28zM30,42H32V44H30zM32,42H34V44H32zM36,42H38V44H36zM40,42H42V44H40zM42,42H44V44H42zM52,42H54V44H52zM58,42H60V44H58zM60,42H62V44H60zM62,42H64V44H62zM68,42H70V44H68zM78,42H80V44H78zM80,42H82V44H80zM82,42H84V44H82zM86,42H88V44H86zM96,42H98V44H96zM16,44H18V46H16zM18,44H20V46H18zM20,44H22V46H20zM22,44H24V46H22zM24,44H26V46H24zM28,44H30V46H28zM30,44H32V46H30zM32,44H34V46H32zM34,44H36V46H34zM38,44H40V46H38zM46,44H48V46H46zM50,44H52V46H50zM52,44H54V46H52zM54,44H56V46H54zM60,44H62V46H60zM70,44H72V46H70zM72,44H74V46H72zM74,44H76V46H74zM76,44H78V46H76zM78,44H80V46H78zM80,44H82V46H80zM82,44H84V46H82zM84,44H86V46H84zM90,44H92V46H90zM92,44H94V46H92zM94,44H96V46H94zM8,46H10V48H8zM16,46H18V48H16zM26,46H28V48H26zM32,46H34V48H32zM40,46H42V48H40zM42,46H44V48H42zM44,46H46V48H44zM48,46H50V48H48zM52,46H54V48H52zM62,46H64V48H62zM64,46H66V48H64zM66,46H68V48H66zM70,46H72V48H70zM72,46H74V48H72zM74,46H76V48H74zM76,46H78V48H76zM84,46H86V48H84zM86,46H88V48H86zM88,46H90V48H88zM90,46H92V48H90zM92,46H94V48H92zM8,48H10V50H8zM10,48H12V50H10zM14,48H16V50H14zM16,48H18V50H16zM18,48H20V50H18zM20,48H22V50H20zM22,48H24V50H22zM24,48H26V50H24zM28,48H30V50H28zM30,48H32V50H30zM32,48H34V50H32zM34,48H36V50H34zM38,48H40V50H38zM46,48H48V50H46zM48,48H50V50H48zM50,48H52V50H50zM52,48H54V50H52zM54,48H56V50H54zM56,48H58V50H56zM58,48H60V50H58zM64,48H66V50H64zM66,48H68V50H66zM70,48H72V50H70zM80,48H82V50H80zM82,48H84V50H82zM84,48H86V50H84zM86,48H88V50H86zM88,48H90V50H88zM94,48H96V50H94zM96,48H98V50H96zM8,50H10V52H8zM14,50H16V52H14zM16,50H18V52H16zM24,50H26V52H24zM26,50H28V52H26zM28,50H30V52H28zM32,50H34V52H32zM38,50H40V52H38zM42,50H44V52H42zM44,50H46V52H44zM46,50H48V52H46zM48,50H50V52H48zM56,50H58V52H56zM64,50H66V52H64zM68,50H70V52H68zM70,50H72V52H70zM72,50H74V52H72zM74,50H76V52H74zM78,50H80V52H78zM80,50H82V52H80zM88,50H90V52H88zM90,50H92V52H90zM92,50H94V52H92zM96,50H98V52H96zM10,52H12V54H10zM12,52H14V54H12zM14,52H16V54H14zM16,52H18V54H16zM20,52H22V54H20zM24,52H26V54H24zM28,52H30V54H28zM30,52H32V54H30zM34,52H36V54H34zM38,52H40V54H38zM42,52H44V54H42zM44,52H46V54H44zM48,52H50V54H48zM52,52H54V54H52zM56,52H58V54H56zM60,52H62V54H60zM64,52H66V54H64zM68,52H70V54H68zM70,52H72V54H70zM72,52H74V54H72zM74,52H76V54H74zM76,52H78V54H76zM80,52H82V54H80zM84,52H86V54H84zM88,52H90V54H88zM90,52H92V54H90zM94,52H96V54H94zM10,54H12V56H10zM14,54H16V56H14zM16,54H18V56H16zM24,54H26V56H24zM26,54H28V56H26zM28,54H30V56H28zM34,54H36V56H34zM36,54H38V56H36zM42,54H44V56H42zM44,54H46V56H44zM48,54H50V56H48zM56,54H58V56H56zM58,54H60V56H58zM60,54H62V56H60zM72,54H74V56H72zM74,54H76V56H74zM80,54H82V56H80zM88,54H90V56H88zM90,54H92V56H90zM92,54H94V56H92zM10,56H12V58H10zM14,56H16V58H14zM16,56H18V58H16zM18,56H20V58H18zM20,56H22V58H20zM22,56H24V58H22zM24,56H26V58H24zM26,56H28V58H26zM28,56H30V58H28zM30,56H32V58H30zM34,56H36V58H34zM38,56H40V58H38zM42,56H44V58H42zM44,56H46V58H44zM48,56H50V58H48zM50,56H52V58H50zM52,56H54V58H52zM54,56H56V58H54zM56,56H58V58H56zM58,56H60V58H58zM60,56H62V58H60zM62,56H64V58H62zM64,56H66V58H64zM66,56H68V58H66zM70,56H72V58H70zM74,56H76V58H74zM76,56H78V58H76zM80,56H82V58H80zM82,56H84V58H82zM84,56H86V58H84zM86,56H88V58H86zM88,56H90V58H88zM12,58H14V60H12zM22,58H24V60H22zM26,58H28V60H26zM28,58H30V60H28zM30,58H32V60H30zM34,58H36V60H34zM40,58H42V60H40zM42,58H44V60H42zM44,58H46V60H44zM50,58H52V60H50zM52,58H54V60H52zM56,58H58V60H56zM64,58H66V60H64zM70,58H72V60H70zM78,58H80V60H78zM80,58H82V60H80zM90,58H92V60H90zM92,58H94V60H92zM96,58H98V60H96zM10,60H12V62H10zM12,60H14V62H12zM20,60H22V62H20zM24,60H26V62H24zM26,60H28V62H26zM30,60H32V62H30zM32,60H34V62H32zM34,60H36V62H34zM36,60H38V62H36zM38,60H40V62H38zM42,60H44V62H42zM46,60H48V62H46zM48,60H50V62H48zM52,60H54V62H52zM58,60H60V62H58zM64,60H66V62H64zM66,60H68V62H66zM68,60H70V62H68zM70,60H72V62H70zM72,60H74V62H72zM74,60H76V62H74zM76,60H78V62H76zM78,60H80V62H78zM80,60H82V62H80zM82,60H84V62H82zM86,60H88V62H86zM90,60H92V62H90zM94,60H96V62H94zM12,62H14V64H12zM16,62H18V64H16zM22,62H24V64H22zM28,62H30V64H28zM30,62H32V64H30zM38,62H40V64H38zM50,62H52V64H50zM58,62H60V64H58zM60,62H62V64H60zM62,62H64V64H62zM66,62H68V64H66zM68,62H70V64H68zM70,62H72V64H70zM72,62H74V64H72zM76,62H78V64H76zM78,62H80V64H78zM82,62H84V64H82zM84,62H86V64H84zM90,62H92V64H90zM92,62H94V64H92zM94,62H96V64H94zM12,64H14V66H12zM14,64H16V66H14zM18,64H20V66H18zM20,64H22V66H20zM24,64H26V66H24zM26,64H28V66H26zM28,64H30V66H28zM36,64H38V66H36zM38,64H40V66H38zM40,64H42V66H40zM44,64H46V66H44zM46,64H48V66H46zM48,64H50V66H48zM52,64H54V66H52zM54,64H56V66H54zM56,64H58V66H56zM58,64H60V66H58zM60,64H62V66H60zM62,64H64V66H62zM64,64H66V66H64zM66,64H68V66H66zM68,64H70V66H68zM70,64H72V66H70zM76,64H78V66H76zM82,64H84V66H82zM88,64H90V66H88zM96,64H98V66H96zM8,66H10V68H8zM14,66H16V68H14zM16,66H18V68H16zM18,66H20V68H18zM22,66H24V68H22zM24,66H26V68H24zM26,66H28V68H26zM28,66H30V68H28zM30,66H32V68H30zM32,66H34V68H32zM36,66H38V68H36zM38,66H40V68H38zM48,66H50V68H48zM50,66H52V68H50zM60,66H62V68H60zM64,66H66V68H64zM66,66H68V68H66zM72,66H74V68H72zM78,66H80V68H78zM80,66H82V68H80zM82,66H84V68H82zM90,66H92V68H90zM92,66H94V68H92zM96,66H98V68H96zM8,68H10V70H8zM10,68H12V70H10zM12,68H14V70H12zM20,68H22V70H20zM22,68H24V70H22zM24,68H26V70H24zM26,68H28V70H26zM28,68H30V70H28zM36,68H38V70H36zM50,68H52V70H50zM52,68H54V70H52zM60,68H62V70H60zM62,68H64V70H62zM68,68H70V70H68zM76,68H78V70H76zM80,68H82V70H80zM86,68H88V70H86zM90,68H92V70H90zM92,68H94V70H92zM94,68H96V70H94zM8,70H10V72H8zM16,70H18V72H16zM18,70H20V72H18zM22,70H24V72H22zM28,70H30V72H28zM30,70H32V72H30zM38,70H40V72H38zM40,70H42V72H40zM46,70H48V72H46zM50,70H52V72H50zM56,70H58V72H56zM58,70H60V72H58zM60,70H62V72H60zM64,70H66V72H64zM68,70H70V72H68zM72,70H74V72H72zM74,70H76V72H74zM78,70H80V72H78zM84,70H86V72H84zM90,70H92V72H90zM92,70H94V72H92zM94,70H96V72H94zM8,72H10V74H8zM12,72H14V74H12zM14,72H16V74H14zM20,72H22V74H20zM24,72H26V74H24zM26,72H28V74H26zM28,72H30V74H28zM32,72H34V74H32zM34,72H36V74H34zM36,72H38V74H36zM40,72H42V74H40zM42,72H44V74H42zM48,72H50V74H48zM52,72H54V74H52zM56,72H58V74H56zM58,72H60V74H58zM62,72H64V74H62zM66,72H68V74H66zM74,72H76V74H74zM76,72H78V74H76zM82,72H84V74H82zM84,72H86V74H84zM88,72H90V74H88zM90,72H92V74H90zM96,72H98V74H96zM8,74H10V76H8zM12,74H14V76H12zM18,74H20V76H18zM22,74H24V76H22zM24,74H26V76H24zM32,74H34V76H32zM38,74H40V76H38zM40,74H42V76H40zM42,74H44V76H42zM44,74H46V76H44zM46,74H48V76H46zM52,74H54V76H52zM54,74H56V76H54zM60,74H62V76H60zM66,74H68V76H66zM68,74H70V76H68zM70,74H72V76H70zM72,74H74V76H72zM74,74H76V76H74zM82,74H84V76H82zM90,74H92V76H90zM92,74H94V76H92zM96,74H98V76H96zM16,76H18V78H16zM20,76H22V78H20zM22,76H24V78H22zM24,76H26V78H24zM30,76H32V78H30zM32,76H34V78H32zM44,76H46V78H44zM52,76H54V78H52zM56,76H58V78H56zM64,76H66V78H64zM66,76H68V78H66zM70,76H72V78H70zM72,76H74V78H72zM74,76H76V78H74zM76,76H78V78H76zM78,76H80V78H78zM80,76H82V78H80zM82,76H84V78H82zM88,76H90V78H88zM92,76H94V78H92zM10,78H12V80H10zM12,78H14V80H12zM14,78H16V80H14zM16,78H18V80H16zM22,78H24V80H22zM24,78H26V80H24zM30,78H32V80H30zM32,78H34V80H32zM34,78H36V80H34zM38,78H40V80H38zM40,78H42V80H40zM42,78H44V80H42zM48,78H50V80H48zM52,78H54V80H52zM58,78H60V80H58zM60,78H62V80H60zM62,78H64V80H62zM68,78H70V80H68zM72,78H74V80H72zM74,78H76V80H74zM76,78H78V80H76zM78,78H80V80H78zM84,78H86V80H84zM86,78H88V80H86zM90,78H92V80H90zM92,78H94V80H92zM96,78H98V80H96zM8,80H10V82H8zM14,80H16V82H14zM16,80H18V82H16zM20,80H22V82H20zM24,80H26V82H24zM26,80H28V82H26zM28,80H30V82H28zM34,80H36V82H34zM36,80H38V82H36zM40,80H42V82H40zM44,80H46V82H44zM46,80H48V82H46zM48,80H50V82H48zM50,80H52V82H50zM52,80H54V82H52zM54,80H56V82H54zM56,80H58V82H56zM60,80H62V82H60zM66,80H68V82H66zM70,80H72V82H70zM80,80H82V82H80zM82,80H84V82H82zM84,80H86V82H84zM86,80H88V82H86zM88,80H90V82H88zM90,80H92V82H90zM24,82H26V84H24zM26,82H28V84H26zM28,82H30V84H28zM30,82H32V84H30zM32,82H34V84H32zM34,82H36V84H34zM40,82H42V84H40zM44,82H46V84H44zM48,82H50V84H48zM56,82H58V84H56zM60,82H62V84H60zM62,82H64V84H62zM64,82H66V84H64zM66,82H68V84H66zM68,82H70V84H68zM70,82H72V84H70zM78,82H80V84H78zM80,82H82V84H80zM88,82H90V84H88zM90,82H92V84H90zM92,82H94V84H92zM96,82H98V84H96zM8,84H10V86H8zM10,84H12V86H10zM12,84H14V86H12zM14,84H16V86H14zM16,84H18V86H16zM18,84H20V86H18zM20,84H22V86H20zM26,84H28V86H26zM28,84H30V86H28zM30,84H32V86H30zM32,84H34V86H32zM34,84H36V86H34zM38,84H40V86H38zM44,84H46V86H44zM48,84H50V86H48zM52,84H54V86H52zM56,84H58V86H56zM58,84H60V86H58zM66,84H68V86H66zM70,84H72V86H70zM72,84H74V86H72zM74,84H76V86H74zM76,84H78V86H76zM80,84H82V86H80zM84,84H86V86H84zM88,84H90V86H88zM90,84H92V86H90zM92,84H94V86H92zM94,84H96V86H94zM8,86H10V88H8zM20,86H22V88H20zM28,86H30V88H28zM32,86H34V88H32zM34,86H36V88H34zM38,86H40V88H38zM40,86H42V88H40zM42,86H44V88H42zM44,86H46V88H44zM48,86H50V88H48zM56,86H58V88H56zM58,86H60V88H58zM62,86H64V88H62zM64,86H66V88H64zM66,86H68V88H66zM72,86H74V88H72zM76,86H78V88H76zM78,86H80V88H78zM80,86H82V88H80zM88,86H90V88H88zM90,86H92V88H90zM92,86H94V88H92zM94,86H96V88H94zM8,88H10V90H8zM12,88H14V90H12zM14,88H16V90H14zM16,88H18V90H16zM20,88H22V90H20zM24,88H26V90H24zM26,88H28V90H26zM30,88H32V90H30zM32,88H34V90H32zM42,88H44V90H42zM44,88H46V90H44zM48,88H50V90H48zM50,88H52V90H50zM52,88H54V90H52zM54,88H56V90H54zM56,88H58V90H56zM58,88H60V90H58zM68,88H70V90H68zM70,88H72V90H70zM80,88H82V90H80zM82,88H84V90H82zM84,88H86V90H84zM86,88H88V90H86zM88,88H90V90H88zM90,88H92V90H90zM8,90H10V92H8zM12,90H14V92H12zM14,90H16V92H14zM16,90H18V92H16zM20,90H22V92H20zM24,90H26V92H24zM26,90H28V92H26zM28,90H30V92H28zM30,90H32V92H30zM42,90H44V92H42zM44,90H46V92H44zM46,90H48V92H46zM48,90H50V92H48zM50,90H52V92H50zM56,90H58V92H56zM64,90H66V92H64zM72,90H74V92H72zM86,90H88V92H86zM88,90H90V92H88zM8,92H10V94H8zM12,92H14V94H12zM14,92H16V94H14zM16,92H18V94H16zM20,92H22V94H20zM24,92H26V94H24zM28,92H30V94H28zM30,92H32V94H30zM32,92H34V94H32zM36,92H38V94H36zM40,92H42V94H40zM42,92H44V94H42zM44,92H46V94H44zM50,92H52V94H50zM52,92H54V94H52zM54,92H56V94H54zM56,92H58V94H56zM62,92H64V94H62zM64,92H66V94H64zM74,92H76V94H74zM76,92H78V94H76zM78,92H80V94H78zM80,92H82V94H80zM82,92H84V94H82zM84,92H86V94H84zM90,92H92V94H90zM92,92H94V94H92zM94,92H96V94H94zM8,94H10V96H8zM20,94H22V96H20zM26,94H28V96H26zM30,94H32V96H30zM32,94H34V96H32zM36,94H38V96H36zM40,94H42V96H40zM44,94H46V96H44zM46,94H48V96H46zM48,94H50V96H48zM50,94H52V96H50zM52,94H54V96H52zM54,94H56V96H54zM60,94H62V96H60zM62,94H64V96H62zM66,94H68V96H66zM72,94H74V96H72zM80,94H82V96H80zM90,94H92V96H90zM92,94H94V96H92zM8,96H10V98H8zM10,96H12V98H10zM12,96H14V98H12zM14,96H16V98H14zM16,96H18V98H16zM18,96H20V98H18zM20,96H22V98H20zM26,96H28V98H26zM30,96H32V98H30zM32,96H34V98H32zM34,96H36V98H34zM36,96H38V98H36zM38,96H40V98H38zM40,96H42V98H40zM46,96H48V98H46zM48,96H50V98H48zM50,96H52V98H50zM54,96H56V98H54zM58,96H60V98H58zM60,96H62V98H60zM68,96H70V98H68zM74,96H76V98H74zM82,96H84V98H82zM84,96H86V98H84zM86,96H88V98H86zM88,96H90V98H88zM90,96H92V98H90zM94,96H96V98H94z" id="qr-path" fill="#000000" fill-opacity="1" fill-rule="nonzero" stroke="none"/></svg>